<svg xmlns="http://www.w3.org/2000/svg" width="189.148" height="142.747" viewBox="0 0 189.148 142.747">
  <g id="_3" data-name="3" transform="translate(0 0)">
    <path id="Path_155" data-name="Path 155" d="M217.118,116.075c0,21.956-12.872,41.38-32.605,53.2a87.261,87.261,0,0,1-44.834,12.041c-22.258,0-39.236-8.412-52.008-21.3C75.9,148.147,67.7,132.47,62.24,116.075,37.858,42.873,78.589,22.9,139.679,50.83,178.575,68.614,217.118,80.042,217.118,116.075Z" transform="translate(-55.067 -38.747)" fill="#7180b4"/>
    <path id="Path_156" data-name="Path 156" d="M339.775,263.5v91.7a87.261,87.261,0,0,1-44.834,12.041c-22.258,0-39.236-8.412-52.008-21.3V263.5Z" transform="translate(-210.329 -224.496)" fill="#f2f2f2"/>
    <path id="Path_157" data-name="Path 157" d="M295.081,504.986a60.588,60.588,0,0,1,15.647-2.79,48.97,48.97,0,0,1,7.978.312,49.907,49.907,0,0,1,7.743,1.658c2.5.725,4.971,1.562,7.465,2.314a69.625,69.625,0,0,0,7.715,1.883,65.405,65.405,0,0,0,7.839.934,47.742,47.742,0,0,0,7.83-.1,23.955,23.955,0,0,0,7.044-1.786,21.517,21.517,0,0,0,5.729-3.675q.637-.569,1.226-1.188c.232-.242-.136-.611-.368-.368a21.52,21.52,0,0,1-12.414,6.339,41.367,41.367,0,0,1-7.805.313,64.214,64.214,0,0,1-7.934-.8,66.308,66.308,0,0,1-7.684-1.749c-2.48-.718-4.926-1.547-7.4-2.293a55.666,55.666,0,0,0-7.615-1.814,47.9,47.9,0,0,0-7.813-.542,59.737,59.737,0,0,0-15.441,2.287q-.947.266-1.885.561c-.319.1-.183.6.138.5Z" transform="translate(-253.162 -421.298)" fill="#3f3d56"/>
    <path id="Path_158" data-name="Path 158" d="M295.081,580.986a60.588,60.588,0,0,1,15.647-2.789,48.97,48.97,0,0,1,7.978.312,49.9,49.9,0,0,1,7.743,1.658c2.5.725,4.971,1.562,7.465,2.314a69.625,69.625,0,0,0,7.715,1.883,65.386,65.386,0,0,0,7.839.934,47.732,47.732,0,0,0,7.83-.1,23.954,23.954,0,0,0,7.044-1.786,21.516,21.516,0,0,0,5.729-3.675q.637-.569,1.226-1.188c.232-.242-.136-.611-.368-.368a21.52,21.52,0,0,1-12.414,6.339,41.364,41.364,0,0,1-7.805.313,64.2,64.2,0,0,1-7.934-.8,66.281,66.281,0,0,1-7.684-1.749c-2.48-.718-4.926-1.547-7.4-2.293a55.657,55.657,0,0,0-7.615-1.814,47.882,47.882,0,0,0-7.813-.542,59.734,59.734,0,0,0-15.441,2.287q-.947.266-1.885.561c-.319.1-.183.6.138.5Z" transform="translate(-253.162 -484.108)" fill="#3f3d56"/>
    <path id="Path_159" data-name="Path 159" d="M295.081,435.986a60.588,60.588,0,0,1,15.647-2.79,48.967,48.967,0,0,1,7.978.312,49.9,49.9,0,0,1,7.743,1.658c2.5.725,4.971,1.562,7.465,2.314a69.625,69.625,0,0,0,7.715,1.883,65.411,65.411,0,0,0,7.839.934,47.739,47.739,0,0,0,7.83-.1,23.953,23.953,0,0,0,7.044-1.786,21.514,21.514,0,0,0,5.729-3.675q.637-.569,1.226-1.188c.232-.242-.136-.611-.368-.368a21.52,21.52,0,0,1-12.414,6.339,41.362,41.362,0,0,1-7.805.313,64.208,64.208,0,0,1-7.934-.8,66.308,66.308,0,0,1-7.684-1.749c-2.48-.718-4.926-1.547-7.4-2.293a55.666,55.666,0,0,0-7.615-1.814,47.881,47.881,0,0,0-7.813-.542,59.737,59.737,0,0,0-15.441,2.287q-.947.266-1.885.561c-.319.1-.183.6.138.5Z" transform="translate(-253.162 -364.273)" fill="#3f3d56"/>
    <path id="Path_160" data-name="Path 160" d="M291.132,317.147a6.245,6.245,0,0,1,4.01-.137c1.41.349,2.737.956,4.125,1.375a14.278,14.278,0,0,0,7.632.145,14.07,14.07,0,0,0,4-1.713c.283-.178.022-.629-.263-.45a13.8,13.8,0,0,1-7.345,2.094,13.476,13.476,0,0,1-3.845-.566c-1.378-.413-2.694-1.013-4.09-1.368a6.852,6.852,0,0,0-4.485.171c-.306.135-.041.584.263.45Z" transform="translate(-249.834 -268.076)" fill="#3f3d56"/>
    <circle id="Ellipse_18" data-name="Ellipse 18" cx="7.983" cy="7.983" r="7.983" transform="translate(72 112.94)" fill="#3f3d56"/>
    <circle id="Ellipse_19" data-name="Ellipse 19" cx="4.339" cy="4.339" r="4.339" transform="translate(32.604 14.015)" fill="#f2f2f2"/>
    <circle id="Ellipse_20" data-name="Ellipse 20" cx="2.95" cy="2.95" r="2.95" transform="translate(72 27.726)" fill="#f2f2f2"/>
    <circle id="Ellipse_21" data-name="Ellipse 21" cx="2.95" cy="2.95" r="2.95" transform="translate(24.1 56.015)" fill="#f2f2f2"/>
    <rect id="Rectangle_31" data-name="Rectangle 31" width="0.325" height="58.182" transform="translate(14.847 37.047)" fill="#3f3d56"/>
    <ellipse id="Ellipse_22" data-name="Ellipse 22" cx="6.344" cy="14.478" rx="6.344" ry="14.478" transform="translate(8.728 61.286)" fill="#3f3d56"/>
    <ellipse id="Ellipse_23" data-name="Ellipse 23" cx="6.344" cy="14.478" rx="6.344" ry="14.478" transform="translate(8.728 28.262)" fill="#3f3d56"/>
    <path id="Path_161" data-name="Path 161" d="M92.49,146.143l-.312-.093c.02-.066,1.932-6.62-1.208-10.84-1.774-2.383-4.818-3.592-9.047-3.592v-.325c4.339,0,7.471,1.253,9.309,3.724C94.47,139.369,92.51,146.076,92.49,146.143Z" transform="translate(-77.262 -115.232)" fill="#3f3d56"/>
    <circle id="Ellipse_24" data-name="Ellipse 24" cx="4.067" cy="4.067" r="4.067" transform="translate(0.594 12.157)" fill="#3f3d56"/>
    <path id="Path_162" data-name="Path 162" d="M811.317,653.843l-3.043,27.994h21l.913-2.13,1.217,2.13h19.778s-1.521-28.907-4.26-29.819S811.317,653.843,811.317,653.843Z" transform="translate(-677.554 -545.429)" fill="#2f2e41"/>
    <circle id="Ellipse_25" data-name="Ellipse 25" cx="10.65" cy="10.65" r="10.65" transform="translate(141.065 25.649)" fill="#ffb8b8"/>
    <path id="Path_163" data-name="Path 163" d="M894,274.883s.913,9.737,0,10.345,14.605.3,14.605.3-2.13-8.824,0-13.084Z" transform="translate(-748.369 -231.89)" fill="#ffb8b8"/>
    <path id="Path_164" data-name="Path 164" d="M825.4,328.023s7.83,1.219,8.479-1.216l4,5.476.3,54.77s-32.558,3.956-33.775-2.434,12.475-56.9,12.475-56.9l3.447-.223S824.79,328.023,825.4,328.023Z" transform="translate(-674.292 -276.814)" fill="#d0cde1"/>
    <path id="Path_165" data-name="Path 165" d="M762.775,316.375l-5.221,1.809-14.91,3.651.608,36.513s-12.78,36.513-7,39.252,14-3.651,16.431-8.216,10.954-67.854,10.954-69.071A19.815,19.815,0,0,0,762.775,316.375Z" transform="translate(-616.792 -268.192)" fill="#3f3d56"/>
    <path id="Path_166" data-name="Path 166" d="M969.416,316.375l2.062,1.809,14.605,6.694-7.3,36.818s9.737,33.471,6.086,35.3-9.128,7-10.345,3.956S966.137,319.739,969.416,316.375Z" transform="translate(-810.026 -268.192)" fill="#3f3d56"/>
    <path id="Path_167" data-name="Path 167" d="M955.5,583.658s-13.693-5.781-14-.609,15.518,8.824,15.518,7.3S955.5,583.658,955.5,583.658Z" transform="translate(-787.655 -486.808)" fill="#ffb8b8"/>
    <path id="Path_168" data-name="Path 168" d="M809.027,584.528s15.823,11.867,9.737,14.91-14-10.65-14-10.65Z" transform="translate(-674.656 -489.807)" fill="#ffb8b8"/>
    <path id="Path_169" data-name="Path 169" d="M874.393,156.089a.587.587,0,0,1,.565-.335c-4.876-.292-10.011.277-14.09,2.963a15.412,15.412,0,0,1-3.51,2.1l1.056.828-1.261.384,1.856,1.2a1.609,1.609,0,0,1-1.532.513,2.788,2.788,0,0,1,1.7,1.738,8.248,8.248,0,0,1,.407,2.478,3.061,3.061,0,0,1,2.881-2,12.672,12.672,0,0,1,3.679.635,20.353,20.353,0,0,0,8.078.311c-.912,1.831-.143,4.014.632,5.908l1.546,3.78c.858.086,1.465-.767,2.112-1.338.589-.52-1.757,4.057-1.394,3.889a68.684,68.684,0,0,0,5.686-6.182,14.144,14.144,0,0,0,1.607-6.854,10,10,0,0,0-2.6-6.461c-1.109-1.167-2.643-1.372-3.774-2.342-.445-.382-.447-.68-1.058-.9A17.843,17.843,0,0,0,874.393,156.089Z" transform="translate(-717.95 -135.39)" fill="#2f2e41"/>
    <path id="Path_170" data-name="Path 170" d="M697.2,348.752l-2.13-.913-17.04,27.994s-3.043,7.3,2.434,10.65,18.257,13.388,18.257,13.388l7.3-11.258s-14.91-7-14-9.737,5.781-10.041,5.781-10.041Z" transform="translate(-569.214 -294.196)" fill="#3f3d56"/>
    <path id="Path_171" data-name="Path 171" d="M1014.842,361.865l3.956.609s16.431,32.254,12.475,38.339-20.083,14.605-20.083,14.605-.3-10.041-3.043-13.693l9.433-3.651-5.173-20.082Z" transform="translate(-842.739 -305.788)" fill="#3f3d56"/>
  </g>
</svg>
