<svg xmlns="http://www.w3.org/2000/svg" xmlns:xlink="http://www.w3.org/1999/xlink" width="197.216" height="170.131" viewBox="0 0 197.216 170.131">
  <defs>
    <linearGradient id="linear-gradient" x1="0.5" y1="1" x2="0.5" gradientUnits="objectBoundingBox">
      <stop offset="0" stop-color="gray" stop-opacity="0.251"/>
      <stop offset="0.54" stop-color="gray" stop-opacity="0.122"/>
      <stop offset="1" stop-color="gray" stop-opacity="0.102"/>
    </linearGradient>
  </defs>
  <g id="undraw_book_lover_mkck" transform="translate(2.216 -0.008)">
    <path id="Path_9" data-name="Path 9" d="M216.471,92.746c-12.643-.471-24.687-4.841-36.185-9.624S157.4,73.039,145.058,70.505c-7.937-1.63-17.015-1.86-23.409,2.7-6.156,4.394-8.144,11.957-9.213,18.983-.8,5.285-1.278,10.846.928,15.794,1.53,3.435,4.247,6.323,6.124,9.624,6.538,11.449,1.918,25.567-5.167,36.745-3.321,5.245-7.179,10.252-9.742,15.83s-3.751,11.978-1.508,17.673c2.225,5.649,7.525,9.884,13.264,12.865,11.661,6.057,25.4,7.789,38.8,8.771,29.66,2.174,59.477,1.232,89.216.291,11.006-.349,22.059-.7,32.886-2.525,6.013-1.013,12.219-2.617,16.586-6.5a15.6,15.6,0,0,0,3.2-19.432c-6.23-10.354-23.442-12.926-27.8-24.039-2.4-6.116.066-12.928,3.548-18.6,7.47-12.168,19.99-22.845,20.651-36.754.453-9.555-5.568-19.121-14.874-23.642-9.754-4.756-23.284-4.153-30.477,3.691C240.656,90.059,227.634,93.16,216.471,92.746Z" transform="translate(-104.102 -45.989)" fill="#fff"/>
    <path id="Path_10" data-name="Path 10" d="M137.888,459.26l-71.612-.349L59.16,442.221l25.161-1.827-4.385-18.3,49.765-6.45L82.047,399.08l4.21-1,76.627,12.5-4.22,28.557-6.032,15.694Z" transform="translate(-46.782 -314.787)" fill="#00b0ff"/>
    <path id="Path_11" data-name="Path 11" d="M187,698.582s4.394-.7,7.03,2.4c0,0-1.933,1.523-6.092-.586Z" transform="translate(-166.408 -561.448)" fill="#00b0ff"/>
    <path id="Path_12" data-name="Path 12" d="M177.978,698.51s-2.8,3.45-1.423,7.291c0,0,2.285-.914,2.534-5.572Z" transform="translate(-157.846 -561.445)" fill="#00b0ff"/>
    <path id="Path_13" data-name="Path 13" d="M172.76,667.183s1.757-3.224,8.787,1.289a3.945,3.945,0,0,1-4.042,1.992C174.4,670.288,173.58,668.882,172.76,667.183Z" transform="translate(-155.148 -535.79)" fill="#00b0ff"/>
    <path id="Path_14" data-name="Path 14" d="M155.47,670.277s-3.647-.418-4,7.93a3.947,3.947,0,0,0,3.954-2.161C157.067,673.4,156.393,671.923,155.47,670.277Z" transform="translate(-138.312 -539.117)" fill="#00b0ff"/>
    <path id="Path_15" data-name="Path 15" d="M160.44,626.774s2.05-5.682,9.49-1.64c0,0-1.7,5.214-8.729,3.573Z" transform="translate(-145.405 -502.273)" fill="#00b0ff"/>
    <path id="Path_16" data-name="Path 16" d="M149.52,587.73s3.866-5.741,10.72-.418c0,0-2.4,5.389-10.135,2.46Z" transform="translate(-136.77 -471.723)" fill="#00b0ff"/>
    <path id="Path_17" data-name="Path 17" d="M145.6,550.36s4.511-5.274,11.3,0c0,0-4.276,4.628-11.3,1.347Z" transform="translate(-133.67 -442.438)" fill="#00b0ff"/>
    <path id="Path_18" data-name="Path 18" d="M142.24,512.1s4.569-5.507,11.072-.293c0,0-5.155,4.862-11.072,1.582Z" transform="translate(-131.013 -412.033)" fill="#00b0ff"/>
    <path id="Path_19" data-name="Path 19" d="M144.2,473.423s4.812-7.088,10.9-2.285c0,0-5.155,6.093-10.9,3.632Z" transform="translate(-132.563 -380.325)" fill="#00b0ff"/>
    <path id="Path_20" data-name="Path 20" d="M149.52,435.565s5.1-7.03,11.013-1.64c0,0-6.034,6.092-11.013,2.929Z" transform="translate(-136.77 -350.609)" fill="#00b0ff"/>
    <path id="Path_21" data-name="Path 21" d="M156.644,397.294s6.034-6.607,11.3-3.975c0,0-6.287,7.017-11.562,5.728Z" transform="translate(-142.195 -319.617)" fill="#00b0ff"/>
    <path id="Path_22" data-name="Path 22" d="M165.854,359.221s6.963-8.093,11.013-5.39c0,0-5.13,6.277-11.507,6.9Z" transform="translate(-149.296 -288.444)" fill="#00b0ff"/>
    <path id="Path_23" data-name="Path 23" d="M179.178,323.668s6.095-6.607,10.547-4.967c0,0-5.214,6.854-11.365,7.03Z" transform="translate(-159.576 -260.893)" fill="#00b0ff"/>
    <path id="Path_24" data-name="Path 24" d="M194.333,287.447s6.737-6.327,9.666-5.214c0,0-4.862,7.03-9.959,6.62Z" transform="translate(-171.976 -232.159)" fill="#00b0ff"/>
    <path id="Path_25" data-name="Path 25" d="M208.32,248.131s5.8-7.559,8.965-6.973c0,0-3.517,6.739-8.965,7.741Z" transform="translate(-183.268 -199.755)" fill="#00b0ff"/>
    <path id="Path_26" data-name="Path 26" d="M221.5,208.211s5.126-5.793,7.9-5.781c0,0-4.046,7.741-8.107,7.67Z" transform="translate(-193.524 -169.156)" fill="#00b0ff"/>
    <path id="Path_27" data-name="Path 27" d="M228.2,154.788l4.952-12.068s.247,10.909-5.582,14.307Z" transform="translate(-198.49 -121.938)" fill="#00b0ff"/>
    <path id="Path_28" data-name="Path 28" d="M240.063,95.6s.82-10.078.293-10.9c0,0,3.54,8.379-.326,15.351Z" transform="translate(-208.343 -76.057)" fill="#00b0ff"/>
    <path id="Path_29" data-name="Path 29" d="M127.549,635.387s-5.134-3.182-8.459,4.6c0,0,4.569,3.034,9.063-2.617Z" transform="translate(-112.707 -511.02)" fill="#00b0ff"/>
    <path id="Path_30" data-name="Path 30" d="M113.382,594.448s-6.3-2.873-9.352,5.256c0,0,4.864,3.347,9.925-3.2Z" transform="translate(-100.798 -478.766)" fill="#00b0ff"/>
    <path id="Path_31" data-name="Path 31" d="M101.5,552.67s-4.511-5.274-11.3,0c0,0,4.276,4.628,11.3,1.347Z" transform="translate(-89.861 -444.264)" fill="#00b0ff"/>
    <path id="Path_32" data-name="Path 32" d="M99.652,512.1s-4.569-5.507-11.072-.293c0,0,5.155,4.862,11.072,1.582Z" transform="translate(-88.58 -412.033)" fill="#00b0ff"/>
    <path id="Path_33" data-name="Path 33" d="M105.752,469s-3.205-7.94-10.172-4.525c0,0,3.766,7.04,9.888,5.844Z" transform="translate(-94.115 -375.702)" fill="#00b0ff"/>
    <path id="Path_34" data-name="Path 34" d="M112.7,429.138s-3.186-8.078-10.252-4.333c0,0,4.327,7.4,9.938,5.58Z" transform="translate(-99.548 -344.222)" fill="#00b0ff"/>
    <path id="Path_35" data-name="Path 35" d="M134,378.379s-1.255-8.856-7.114-9.649c0,0,1.243,9.34,6.325,11.246Z" transform="translate(-118.875 -300.662)" fill="#00b0ff"/>
    <path id="Path_36" data-name="Path 36" d="M148.273,340.023s-.49-10.67-5.333-11.043c0,0,.163,8.1,4.787,12.553Z" transform="translate(-131.567 -269.229)" fill="#00b0ff"/>
    <path id="Path_37" data-name="Path 37" d="M161.737,304.367s-1.444-8.873-6.067-9.957c0,0,.573,8.593,5.609,12.135Z" transform="translate(-141.633 -241.892)" fill="#00b0ff"/>
    <path id="Path_38" data-name="Path 38" d="M185.682,267.931s-.048-9.243-2.873-10.6c0,0-1.751,8.369,2.055,11.781Z" transform="translate(-162.777 -212.57)" fill="#00b0ff"/>
    <path id="Path_39" data-name="Path 39" d="M196.363,233.069s-.4-9.517-3.32-10.859c0,0-1,7.532,2.883,11.482Z" transform="translate(-171.096 -184.797)" fill="#00b0ff"/>
    <path id="Path_40" data-name="Path 40" d="M213.717,197.567s-.017-7.741-2.1-9.557c0,0-2.075,8.48,1.015,11.114Z" transform="translate(-185.332 -157.753)" fill="#00b0ff"/>
    <path id="Path_41" data-name="Path 41" d="M218.8,149.884,216.766,137s-2.76,10.557,2.128,15.21Z" transform="translate(-189.333 -117.415)" fill="#00b0ff"/>
    <path id="Path_42" data-name="Path 42" d="M211.991,100.994s-5.214-8.662-5.107-9.624c0,0,.554,9.078,7.114,13.6Z" transform="translate(-182.131 -81.332)" fill="#00b0ff"/>
    <path id="Path_43" data-name="Path 43" d="M207.207,74.878s-4.921-12.3-7.147-13.3a15.593,15.593,0,0,1,7.557,12.947Z" transform="translate(-176.736 -57.775)" fill="#00b0ff"/>
    <path id="Path_44" data-name="Path 44" d="M219.9,146.081l-.337-.1c4.153-13.543,5.189-22.177,2.919-24.343l.241-.255C225.127,123.665,224.15,132.205,219.9,146.081Z" transform="translate(-192.156 -105.063)" fill="#444053"/>
    <path id="Path_45" data-name="Path 45" d="M164.628,267.409l-.5-.178c.441-1.241.916-2.5,1.414-3.741,4.335-10.8,8.026-20.855,10.392-28.571l.433-.209c-2.37,7.731-6,18.167-10.335,28.985C165.538,264.913,165.065,266.166,164.628,267.409Z" transform="translate(-148.323 -194.682)" fill="#444053"/>
    <path id="Path_46" data-name="Path 46" d="M155.9,461.1a68.439,68.439,0,0,1-11.49-20.594,76.195,76.195,0,0,1-4.534-23.6c-.322-10.07,1.791-21.313,5.41-31.528l.393.46c-8.126,22.924-4.9,42.568-.615,54.4a67.8,67.8,0,0,0,11.363,20.395Z" transform="translate(-129.12 -313.829)" fill="#444053"/>
    <path id="Path_47" data-name="Path 47" d="M552.424,670.36s-4.743,5.789-.977,14.541l-37.869,16.424-3.634.762-1.674-7.323,1.119-9.241v-5.051Z" transform="translate(-427.7 -539.185)" fill="#d5d6db"/>
    <path id="Path_48" data-name="Path 48" d="M59.16,572.945l52.414-9.555,69.451,11.063-43.137,15.531Z" transform="translate(-46.782 -445.511)" fill="#00b0ff"/>
    <path id="Path_49" data-name="Path 49" d="M59.16,572.945l52.414-9.555,69.451,11.063-43.137,15.531Z" transform="translate(-46.782 -445.511)" fill="#00b0ff"/>
    <path id="Path_50" data-name="Path 50" d="M140.282,652.47s-4.9,9.287.747,17.865l77.726,16.842s-4.825-7.4.249-17.667Z" transform="translate(-127.905 -525.038)" fill="#00b0ff"/>
    <path id="Path_51" data-name="Path 51" d="M140.282,652.47s-4.9,9.287.747,17.865l77.726,16.842s-4.825-7.4.249-17.667Z" transform="translate(-127.905 -525.038)" opacity="0.1"/>
    <path id="Path_52" data-name="Path 52" d="M154.1,667.86s-2.8,6.8,0,11.193" transform="translate(-139.41 -537.208)" opacity="0.1"/>
    <path id="Path_53" data-name="Path 53" d="M229.036,748.376l43.392-18.516s2.427.523.858,2.3-43.413,17.993-43.413,17.993L151.31,731.534Z" transform="translate(-138.186 -586.236)" fill="#00b0ff"/>
    <path id="Path_54" data-name="Path 54" d="M229.036,748.376l43.392-18.516s2.427.523.858,2.3-43.413,17.993-43.413,17.993L151.31,731.534Z" transform="translate(-138.186 -586.236)" opacity="0.1"/>
    <path id="Path_55" data-name="Path 55" d="M498.781,742.86s-4.184,5.021,0,12.553" transform="translate(-417.126 -596.517)" opacity="0.1"/>
    <rect id="Rectangle_11" data-name="Rectangle 11" width="19.786" height="0.209" transform="translate(82.414 152.52) rotate(-18.45)" opacity="0.1"/>
    <rect id="Rectangle_12" data-name="Rectangle 12" width="24.109" height="0.209" transform="translate(82.282 154.204) rotate(-20.82)" opacity="0.1"/>
    <rect id="Rectangle_13" data-name="Rectangle 13" width="27.944" height="0.209" transform="translate(82.284 156.19) rotate(-22.26)" opacity="0.1"/>
    <rect id="Rectangle_14" data-name="Rectangle 14" width="32.166" height="0.209" transform="translate(82.438 157.941) rotate(-24.31)" opacity="0.1"/>
    <rect id="Rectangle_15" data-name="Rectangle 15" width="35.181" height="0.209" transform="matrix(0.916, -0.401, 0.401, 0.916, 82.544, 158.793)" opacity="0.1"/>
    <rect id="Rectangle_16" data-name="Rectangle 16" width="42.099" height="0.209" transform="translate(82.74 160.224) rotate(-23.36)" opacity="0.1"/>
    <path id="Path_56" data-name="Path 56" d="M152.23,584.681l36.823-7.741,22.433,4.289-30.174,9.729Z" transform="translate(-120.605 -456.226)" fill="#fff" opacity="0.3"/>
    <path id="Path_57" data-name="Path 57" d="M567.143,659.69s1.9.768.787,1.954S524,675.22,524,675.22Z" transform="translate(-440.416 -530.747)" fill="#00b0ff"/>
    <path id="Path_58" data-name="Path 58" d="M651.722,574.18s-4.741,5.787-.975,14.541l-37.869,16.424-3.634.766-1.674-7.323,1.136-9.239v-5.057Z" transform="translate(-507.937 -463.128)" fill="#d5d6db"/>
    <path id="Path_59" data-name="Path 59" d="M158.46,476.763l52.412-9.553,69.453,11.064L237.188,493.8Z" transform="translate(-129.985 -369.454)" fill="#3a3768"/>
    <path id="Path_60" data-name="Path 60" d="M239.537,556.29s-4.9,9.287.745,17.865L318.007,591s-4.823-7.4.257-17.669Z" transform="translate(-206.651 -448.981)" fill="#3a3768"/>
    <path id="Path_61" data-name="Path 61" d="M239.537,556.29s-4.9,9.287.745,17.865L318.007,591s-4.823-7.4.257-17.669l-24.579-5.32Z" transform="translate(-206.651 -448.981)" opacity="0.1"/>
    <path id="Path_62" data-name="Path 62" d="M253.4,571.68s-2.8,6.793,0,11.193" transform="translate(-217.93 -461.151)" opacity="0.1"/>
    <path id="Path_63" data-name="Path 63" d="M328.326,652.2,371.72,633.68s2.425.523.856,2.3-43.413,17.993-43.413,17.993L250.6,635.354Z" transform="translate(-221.518 -510.179)" fill="#3a3768"/>
    <path id="Path_64" data-name="Path 64" d="M328.326,652.2,371.72,633.68s2.425.523.856,2.3-43.413,17.993-43.413,17.993L250.6,635.354Z" transform="translate(-221.518 -510.179)" opacity="0.1"/>
    <path id="Path_65" data-name="Path 65" d="M598.071,646.68s-4.184,5.021,0,12.553" transform="translate(-497.013 -520.46)" opacity="0.1"/>
    <rect id="Rectangle_17" data-name="Rectangle 17" width="19.786" height="0.209" transform="translate(101.699 132.399) rotate(-18.45)" opacity="0.1"/>
    <rect id="Rectangle_18" data-name="Rectangle 18" width="24.109" height="0.209" transform="translate(101.54 134.083) rotate(-20.82)" opacity="0.1"/>
    <rect id="Rectangle_19" data-name="Rectangle 19" width="27.944" height="0.209" transform="translate(101.512 136.066) rotate(-22.26)" opacity="0.1"/>
    <rect id="Rectangle_20" data-name="Rectangle 20" width="32.166" height="0.209" transform="translate(101.64 137.817) rotate(-24.31)" opacity="0.1"/>
    <rect id="Rectangle_21" data-name="Rectangle 21" width="35.181" height="0.209" transform="matrix(0.916, -0.401, 0.401, 0.916, 101.718, 138.666)" opacity="0.1"/>
    <rect id="Rectangle_22" data-name="Rectangle 22" width="42.099" height="0.209" transform="translate(101.856 140.097) rotate(-23.36)" opacity="0.1"/>
    <path id="Path_66" data-name="Path 66" d="M251.53,488.5l36.823-7.741,22.433,4.289-30.174,9.729Z" transform="translate(-203.666 -380.169)" fill="#fff" opacity="0.45"/>
    <path id="Path_67" data-name="Path 67" d="M666.467,563.51s1.9.768.787,1.952-43.924,13.576-43.924,13.576Z" transform="translate(-520.678 -454.69)" fill="#3a3768"/>
    <path id="Path_68" data-name="Path 68" d="M661.146,464.15s-4.743,10.392-.977,19.144L622.3,495.115l-3.626.768L617,488.56l1.119-9.241v-5.057Z" transform="translate(-515.556 -376.118)" fill="#d5d6db"/>
    <path id="Path_69" data-name="Path 69" d="M167.89,366.735,220.3,357.18l69.453,11.064-43.139,15.53Z" transform="translate(-138.101 -282.445)" fill="#00b0ff"/>
    <path id="Path_70" data-name="Path 70" d="M248.99,446.26s-4.91,9.287.739,17.865l77.726,16.842s-4.825-7.4.255-17.667Z" transform="translate(-217.097 -361.971)" fill="#00b0ff"/>
    <path id="Path_71" data-name="Path 71" d="M248.99,446.26s-4.91,9.287.739,17.865l77.726,16.842s-4.825-7.4.255-17.667Z" transform="translate(-217.097 -361.971)" opacity="0.1"/>
    <path id="Path_72" data-name="Path 72" d="M262.834,461.65s-2.8,6.8,0,11.193" transform="translate(-225.392 -374.142)" opacity="0.1"/>
    <path id="Path_73" data-name="Path 73" d="M337.766,548.492l43.392-13.913s2.427.523.858,2.3-43.413,13.39-43.413,13.39L260.04,531.65Z" transform="translate(-229.656 -429.496)" fill="#00b0ff"/>
    <path id="Path_74" data-name="Path 74" d="M337.766,548.492l43.392-13.913s2.427.523.858,2.3-43.413,13.39-43.413,13.39L260.04,531.65Z" transform="translate(-229.656 -429.496)" opacity="0.1"/>
    <path id="Path_75" data-name="Path 75" d="M607.511,536.65s-4.184,5.021,0,12.553" transform="translate(-504.608 -433.45)" opacity="0.1"/>
    <rect id="Rectangle_23" data-name="Rectangle 23" width="19.786" height="0.209" transform="translate(103.533 109.378) rotate(-18.45)" opacity="0.1"/>
    <rect id="Rectangle_24" data-name="Rectangle 24" width="24.109" height="0.209" transform="translate(103.37 111.063) rotate(-20.82)" opacity="0.1"/>
    <rect id="Rectangle_25" data-name="Rectangle 25" width="27.944" height="0.209" transform="translate(103.337 113.047) rotate(-22.26)" opacity="0.1"/>
    <rect id="Rectangle_26" data-name="Rectangle 26" width="32.166" height="0.209" transform="translate(103.465 114.796) rotate(-24.31)" opacity="0.1"/>
    <rect id="Rectangle_27" data-name="Rectangle 27" width="35.181" height="0.209" transform="matrix(0.916, -0.401, 0.401, 0.916, 103.542, 115.647)" opacity="0.1"/>
    <rect id="Rectangle_28" data-name="Rectangle 28" width="42.099" height="0.209" transform="translate(103.674 117.08) rotate(-23.36)" opacity="0.1"/>
    <path id="Path_76" data-name="Path 76" d="M260.96,378.471l36.823-7.741,22.433,4.289-30.174,9.729Z" transform="translate(-211.301 -293.16)" fill="#fff" opacity="0.3"/>
    <path id="Path_77" data-name="Path 77" d="M675.9,453.48s1.9.768.787,1.954S632.76,469.01,632.76,469.01Z" transform="translate(-528.298 -367.681)" fill="#00b0ff"/>
    <path id="Path_78" data-name="Path 78" d="M372.176,149.881s-7.95-.479-7.021,5.1a1.361,1.361,0,0,0,.707,1.433s.015-.418.816-.274a3.567,3.567,0,0,0,.866.042,1.8,1.8,0,0,0,1.057-.435h0s2.237-.925,3.107-4.582c0,0,.644-.8.628-1l-1.347.573a2.414,2.414,0,0,1,.1,1.774s-.044-1.739-.3-1.7c-.052,0-.7.337-.7.337a3.971,3.971,0,0,1,.192,2.914s.226-2.08-.439-2.793l-.946.552a4.174,4.174,0,0,1,.3,3.166s.161-2.182-.5-3.032l-.858.669a4.077,4.077,0,0,1,.339,2.9s-.069-2.54-.523-2.732a5.169,5.169,0,0,0-.864.933s.594,1.255.224,1.906c0,0-.224-1.693-.418-1.7a5.632,5.632,0,0,0-.824,1.883,4.072,4.072,0,0,1,.642-2,2.24,2.24,0,0,0-1.142.592s.115-.793,1.328-.862a5.141,5.141,0,0,1,.783-.9,4.9,4.9,0,0,0-1.937.222,2.195,2.195,0,0,1,2.157-.418l.837-.69a7.219,7.219,0,0,0-2.26.023,2.753,2.753,0,0,1,2.488-.18l.923-.55a8.384,8.384,0,0,0-2.159-.186,3.314,3.314,0,0,1,2.429.038l.657-.295s-.99-.195-1.28-.226-.306-.111-.306-.111a3.454,3.454,0,0,1,1.862.209A8.3,8.3,0,0,0,372.176,149.881Z" transform="translate(-311.147 -127.593)" fill="#00b0ff"/>
    <path id="Path_79" data-name="Path 79" d="M906.776,259.461s-7.95-.479-7.021,5.1a1.361,1.361,0,0,0,.707,1.433s.015-.418.816-.274a3.687,3.687,0,0,0,.866.042,1.8,1.8,0,0,0,1.046-.435h0s2.239-.925,3.107-4.582c0,0,.644-.8.628-1l-1.343.573a2.414,2.414,0,0,1,.1,1.774s-.044-1.739-.3-1.7c-.052,0-.7.337-.7.337a3.977,3.977,0,0,1,.195,2.914s.226-2.08-.442-2.793l-.946.552a4.174,4.174,0,0,1,.3,3.166s.161-2.182-.5-3.032l-.856.669a4.081,4.081,0,0,1,.337,2.9s-.069-2.54-.523-2.732a5.244,5.244,0,0,0-.864.933s.594,1.255.226,1.906c0,0-.226-1.693-.419-1.7a5.633,5.633,0,0,0-.824,1.883,4.061,4.061,0,0,1,.644-2,2.251,2.251,0,0,0-1.144.592s.117-.793,1.329-.862a5.231,5.231,0,0,1,.782-.9,4.918,4.918,0,0,0-1.937.224,2.195,2.195,0,0,1,2.157-.418l.837-.69a7.223,7.223,0,0,0-2.26.023,2.751,2.751,0,0,1,2.488-.18l.92-.55a8.384,8.384,0,0,0-2.159-.186,3.314,3.314,0,0,1,2.429.038l.659-.3s-.992-.195-1.283-.226-.305-.111-.305-.111a3.428,3.428,0,0,1,1.862.209A8.442,8.442,0,0,0,906.776,259.461Z" transform="translate(-741.471 -214.247)" fill="#00b0ff" opacity="0.1"/>
    <path id="Path_80" data-name="Path 80" d="M429.8,297.146s-3.465-7.183-7.875-3.643a1.359,1.359,0,0,0-.906,1.316s.366-.19.628.58a3.707,3.707,0,0,0,.385.774,1.806,1.806,0,0,0,.9.711h0s1.9,1.5,5.515.477a3.579,3.579,0,0,0,1.176.052l-1.155-.893a2.428,2.428,0,0,1-1.5.95s1.5-.885,1.337-1.09c-.034-.042-.628-.446-.628-.446a3.973,3.973,0,0,1-2.45,1.59s1.925-.816,2.222-1.747l-.941-.557a4.175,4.175,0,0,1-2.619,1.8s1.983-.923,2.4-1.91l-1-.418s-1.077,1.594-2.366,1.709c0,0,2.184-1.3,2.13-1.791a5.3,5.3,0,0,0-1.236-.3s-.8,1.128-1.552,1.128c0,0,1.366-1.023,1.283-1.188a5.519,5.519,0,0,0-2.05.209,4.072,4.072,0,0,1,2.057-.418,2.252,2.252,0,0,0-1.075-.709s.749-.285,1.4.739a5.162,5.162,0,0,1,1.17.243,4.912,4.912,0,0,0-1.138-1.58s.967.195,1.408,1.674l1.015.4a6.979,6.979,0,0,0-1.121-1.96s.954.354,1.37,2.092l.929.536a8.277,8.277,0,0,0-.889-1.975,3.315,3.315,0,0,1,1.151,2.138l.58.431s-.314-.96-.418-1.228-.052-.322-.052-.322a3.434,3.434,0,0,1,.728,1.726A7.808,7.808,0,0,0,429.8,297.146Z" transform="translate(-356.213 -240.399)" fill="#00b0ff" opacity="0.1"/>
    <path id="Path_81" data-name="Path 81" d="M813.585,193.526s-3.463-7.183-7.875-3.643a1.361,1.361,0,0,0-.906,1.316s.368-.188.628.58a3.631,3.631,0,0,0,.387.776,1.8,1.8,0,0,0,.9.709h0s1.9,1.5,5.515.479a3.6,3.6,0,0,0,1.178.05l-1.149-.9a2.427,2.427,0,0,1-1.5.952s1.5-.887,1.335-1.092c-.033-.042-.628-.446-.628-.446a3.966,3.966,0,0,1-2.45,1.59s1.927-.816,2.224-1.745l-.956-.552a4.176,4.176,0,0,1-2.619,1.8s1.983-.925,2.406-1.912l-1-.418s-1.077,1.6-2.364,1.709c0,0,2.182-1.3,2.128-1.789a5.174,5.174,0,0,0-1.234-.3s-.8,1.126-1.555,1.126c0,0,1.368-1.023,1.285-1.188a5.532,5.532,0,0,0-2.052.209,4.071,4.071,0,0,1,2.057-.418,2.24,2.24,0,0,0-1.073-.709s.749-.285,1.4.739a5.178,5.178,0,0,1,1.169.245,4.9,4.9,0,0,0-1.14-1.582s.967.2,1.408,1.684l1.017.4a6.98,6.98,0,0,0-1.122-1.962s.954.354,1.368,2.092l.931.536a8.355,8.355,0,0,0-.891-1.975,3.3,3.3,0,0,1,1.151,2.138l.58.431s-.312-.96-.418-1.228-.052-.32-.052-.32a3.442,3.442,0,0,1,.726,1.726A8.036,8.036,0,0,0,813.585,193.526Z" transform="translate(-665.177 -158.459)" fill="#00b0ff" opacity="0.1"/>
    <path id="Path_82" data-name="Path 82" d="M866.452,363.329s-3.463-7.185-7.881-3.645a1.362,1.362,0,0,0-.906,1.316s.368-.188.628.58a3.63,3.63,0,0,0,.385.776,1.8,1.8,0,0,0,.9.709h0s1.9,1.5,5.517.479c0,0,1.008.174,1.176.05l-1.155-.893a2.428,2.428,0,0,1-1.5.952s1.5-.887,1.335-1.092c-.033-.042-.628-.446-.628-.446a3.975,3.975,0,0,1-2.45,1.592s1.927-.818,2.224-1.747l-.944-.557a4.168,4.168,0,0,1-2.619,1.8s1.983-.925,2.406-1.912l-1-.418s-1.077,1.594-2.364,1.709c0,0,2.184-1.3,2.13-1.791a5.2,5.2,0,0,0-1.237-.3s-.8,1.126-1.554,1.126c0,0,1.368-1.023,1.285-1.188a5.532,5.532,0,0,0-2.053.209,4.085,4.085,0,0,1,2.059-.418,2.237,2.237,0,0,0-1.075-.709s.749-.287,1.4.739a5.163,5.163,0,0,1,1.169.243,4.934,4.934,0,0,0-1.138-1.582s.967.2,1.408,1.684l1.015.4a6.95,6.95,0,0,0-1.121-1.96s.954.352,1.368,2.092l.931.534a8.353,8.353,0,0,0-.891-1.975,3.313,3.313,0,0,1,1.153,2.14l.58.418s-.314-.96-.418-1.228-.052-.32-.052-.32a3.421,3.421,0,0,1,.726,1.726A8.468,8.468,0,0,0,866.452,363.329Z" transform="translate(-707.732 -292.734)" fill="#00b0ff" opacity="0.1"/>
    <ellipse id="Ellipse_7" data-name="Ellipse 7" cx="4.81" cy="0.538" rx="4.81" ry="0.538" transform="translate(34.877 162.993)" fill="#00b0ff" opacity="0.1"/>
    <ellipse id="Ellipse_8" data-name="Ellipse 8" cx="4.81" cy="0.538" rx="4.81" ry="0.538" transform="translate(5.91 153.855)" fill="#00b0ff" opacity="0.1"/>
    <ellipse id="Ellipse_9" data-name="Ellipse 9" cx="4.81" cy="0.538" rx="4.81" ry="0.538" transform="translate(57.266 169.063)" fill="#00b0ff" opacity="0.1"/>
    <ellipse id="Ellipse_10" data-name="Ellipse 10" cx="4.81" cy="0.538" rx="4.81" ry="0.538" transform="translate(170.646 155.842)" fill="#00b0ff" opacity="0.1"/>
    <ellipse id="Ellipse_11" data-name="Ellipse 11" cx="4.81" cy="0.538" rx="4.81" ry="0.538" transform="translate(134.713 153.233)" fill="#00b0ff" opacity="0.1"/>
    <ellipse id="Ellipse_12" data-name="Ellipse 12" cx="5.689" cy="0.977" rx="5.689" ry="0.977" transform="translate(109.705 165.079)" fill="#00b0ff" opacity="0.1"/>
    <path id="Path_83" data-name="Path 83" d="M672.262,790.14s-7.921,4.092-3.829,8.913a1.531,1.531,0,0,0,1.5.973s-.222-.406.628-.73a4.078,4.078,0,0,0,.856-.454,2.011,2.011,0,0,0,.766-1.023h0s1.619-2.167.364-6.178a3.975,3.975,0,0,0,.021-1.318l-.962,1.32a2.7,2.7,0,0,1,1.109,1.649s-1.046-1.647-1.255-1.465c-.046.038-.477.722-.477.722a4.432,4.432,0,0,1,1.852,2.689s-.971-2.128-2.019-2.431l-.6,1.071a4.653,4.653,0,0,1,2.092,2.87s-1.094-2.186-2.212-2.628l-.441,1.132s1.816,1.155,1.984,2.59c0,0-1.519-2.4-2.065-2.324a5.8,5.8,0,0,0-.3,1.391s1.282.858,1.305,1.7c0,0-1.184-1.5-1.366-1.4a6.308,6.308,0,0,0,.289,2.287,4.514,4.514,0,0,1-.525-2.287,2.511,2.511,0,0,0-.76,1.222s-.341-.826.783-1.588a5.792,5.792,0,0,1,.236-1.314,5.515,5.515,0,0,0-1.732,1.322s.19-1.086,1.839-1.626l.418-1.147A7.8,7.8,0,0,0,667.6,795.4s.366-1.077,2.287-1.594l.569-1.046a9.61,9.61,0,0,0-2.18,1.046,3.705,3.705,0,0,1,2.356-1.354l.462-.659s-1.063.379-1.36.515-.356.069-.356.069a3.848,3.848,0,0,1,1.906-.866A9.319,9.319,0,0,0,672.262,790.14Z" transform="translate(-554.327 -633.905)" fill="#00b0ff"/>
    <path id="Path_84" data-name="Path 84" d="M535.33,122.363c-1.368-3.718-8.9-4.067-12.168-3.119a97.7,97.7,0,0,1-9.833,1.82l-.169-.161c.339-.1.347-.347.305-.713a11.182,11.182,0,0,1,.021-1.448,3.565,3.565,0,0,0,3.03-.68h0c1.883-.837,1.377-4.419,1.737-5.4a62.055,62.055,0,0,0,.69-7.2h.027l.015-.722c.019-.312.027-.494.027-.494a49.469,49.469,0,0,1,.544-6.325,55.333,55.333,0,0,0,.649-6.7v-.1l-.027-.456c.019-.333.027-.7.025-1.092,0-1.789-.186-4.042-.209-4.406v-.19c.015-.764-.082-4.588-3.335-6.034-1.2-.536-2.64-1.174-4.036-1.8-.36-3.107-1.182-6.2-1.111-9.327,0-.471.042-.941.088-1.41,0,.136-.015.274-.017.418v.912c.123-3.915,1.6-7.85,1.465-11.681-.013.375-.04.751-.075,1.128a12.161,12.161,0,0,0-.4-3.848,2.277,2.277,0,0,0-.657-1.193,2.7,2.7,0,0,0-1.146-.454,23.059,23.059,0,0,0-3.011-.561,4.647,4.647,0,0,0-.678-1.316c-2.122-2.912-5.264-5.649-8.98-6.277-1.864-.314-4.009-.052-5.277,1.28a3.961,3.961,0,0,0-.372.377c-.682.814-.975,1.883-1.674,2.695-.046.054-.1.1-.149.157-1.368,1.224-3.5,1.479-5.021,2.578a6.019,6.019,0,0,0-.751.655,12.735,12.735,0,0,0-1.64,1.994,8.27,8.27,0,0,0-1.6,3.113c-.437,2.3,1.13,4.484,1.421,6.8.649,5.182-5.086,9.781-4,14.894a6.82,6.82,0,0,0,1.845,3.312c-2.237,2.025-4.141,3.99-4.141,3.99v.117h-.354l.036.418h-.036l.195,2.27L476.38,91.5v.312h.013a52.883,52.883,0,0,0,.628,6.486,49.4,49.4,0,0,1,.542,6.325s.4,7.434.762,8.417-.153,4.555,1.737,5.4h0a3.975,3.975,0,0,0,1.9.787c-.1.782-.036,1.349.276,1.527a.912.912,0,0,0,.439.126,4.659,4.659,0,0,0-.341.6,8.863,8.863,0,0,1-2.193-.517c-2.029-.837-8.764-2.72-10.72-1.4s-6.664,2.525-4.49,7.856,3.186,5.465,3.186,5.465a7.742,7.742,0,0,1,1.739,1.747c.653.981,6.735,3.226,8.256,3.226a14.891,14.891,0,0,1,1.935.1s-1.651,1.448-1.431,2.289-.5,7.574-.5,7.574,1.674,1.686,2.389-.525l.025.033c.134.182.858,1,2.22-.033a12.445,12.445,0,0,1,1.77-1.121l6.595-.933a18.676,18.676,0,0,1,2.065-.015,4.315,4.315,0,0,0,2.72-1.013c1.366.519,2.9,1.086,3.632,1.293,1.481.418,8.289,2.245,9.882,1.674a2.211,2.211,0,0,0,.858-.611l1.519.048-.711.142s1.385.023,3.268.048l-.079.046,2.362-.021c3.456.031,7.339.042,7.85-.073a55.143,55.143,0,0,1,6.176,0h.341s4.563-.91,2.68-5.54c-1.448-3.557-5.9-4.59-7.873-4.875.557-.111,1.036-.2,1.354-.247,1.379-.209,4.057-1.465,4.274-1.893s2.463-1.674,3.042-2.383S536.7,126.081,535.33,122.363Zm-37.8,10.4-.224.073-.151.05-.289.285c-.23-.155-.477-.318-.734-.485C496.59,132.717,497.057,132.744,497.534,132.768Zm19.941,5.9Z" transform="translate(-393.469 -43.42)" fill="url(#linear-gradient)"/>
    <path id="Path_85" data-name="Path 85" d="M686.65,267.473s3.2,8.369,5.021,7.532,1.326-4.394,1.674-5.369.732-8.369.732-8.369a50.594,50.594,0,0,1,.523-6.289,57.627,57.627,0,0,0,.628-6.651v-.1l-.345-6.067-1.954-.488-4.532,1.674-.628,3.584-.245,1.4-.1.6Z" transform="translate(-570.049 -200.186)" fill="#be6f72"/>
    <path id="Path_86" data-name="Path 86" d="M691.69,358.3s3.055,2.5,3.975,2.72,1.485,2.17,1.485,2.17" transform="translate(-573.978 -292.414)" opacity="0.1"/>
    <path id="Path_87" data-name="Path 87" d="M534.578,269.223s-3.2,8.369-5.021,7.532-1.326-4.394-1.674-5.369-.732-8.369-.732-8.369a50.585,50.585,0,0,0-.523-6.289,57.654,57.654,0,0,1-.628-6.651v-.1l.347-6.067,1.954-.487,4.532,1.674.628,3.584.245,1.4.1.6Z" transform="translate(-440.72 -201.57)" fill="#be6f72"/>
    <rect id="Rectangle_29" data-name="Rectangle 29" width="7.145" height="11.137" transform="translate(106.094 22.868)" fill="#3e373a"/>
    <rect id="Rectangle_30" data-name="Rectangle 30" width="7.145" height="11.137" transform="translate(106.094 22.868)" opacity="0.1"/>
    <path id="Path_88" data-name="Path 88" d="M554.434,404.074s-2.442,2.684-1.536,3.172,6.766,9.624,6.766,9.624,19.248,2.37,22.878-1.186,3.557-9.911,3.557-9.911-2.917.628-3.235.287-2.065-1.986-2.065-1.986S556.108,402.575,554.434,404.074Z" transform="translate(-463.121 -328.085)" fill="#4b4b5b"/>
    <path id="Path_89" data-name="Path 89" d="M554.434,404.074s-2.442,2.684-1.536,3.172,6.766,9.624,6.766,9.624,19.248,2.37,22.878-1.186,3.557-9.911,3.557-9.911-2.917.628-3.235.287-2.065-1.986-2.065-1.986S556.108,402.575,554.434,404.074Z" transform="translate(-463.121 -328.085)" opacity="0.02"/>
    <path id="Path_90" data-name="Path 90" d="M569.287,171.638l-6.277,5.021-1.9.138-.7.05-11.7.858-12.135-.887-1.806-.132-2.3-.167-4.812-4.6a82.4,82.4,0,0,1,6.39-6.111,13.108,13.108,0,0,1,3.1-2.069l.138-.048a3.443,3.443,0,0,0,1.326-.925c2.356-2.429,4.534-8.423,4.534-8.423s10.392-5.369,9.137,1.674,4.672,5.3,4.672,5.3l1.954.891.772.354,1.969.9,4.442,2.038C569.575,167.1,569.287,171.638,569.287,171.638Z" transform="translate(-443.257 -129.579)" fill="#be6f72"/>
    <circle id="Ellipse_13" data-name="Ellipse 13" cx="9.346" cy="9.346" r="9.346" transform="translate(95.696 11.804)" opacity="0.1"/>
    <path id="Path_91" data-name="Path 91" d="M567.989,220.98H526v-.1l.347-6.067a82.419,82.419,0,0,1,6.39-6.111l26.362-1.046,1.226-1.293,4.442,2.038c3.488,1.6,3.207,6.136,3.207,6.136S568.451,219.788,567.989,220.98Z" transform="translate(-441.94 -172.264)" opacity="0.1"/>
    <path id="Path_92" data-name="Path 92" d="M567.989,219.98H526v-.1l.347-6.067a82.418,82.418,0,0,1,6.39-6.111l26.362-1.046,1.226-1.293,4.442,2.038c3.488,1.6,3.207,6.136,3.207,6.136S568.451,218.788,567.989,219.98Z" transform="translate(-441.94 -171.473)" fill="#e7c7ca"/>
    <path id="Path_93" data-name="Path 93" d="M583.905,187.011s6.624,8.44,15.447-.174.977,19.213.977,19.213l-19.039,2.26Z" transform="translate(-485.731 -155.517)" opacity="0.1"/>
    <path id="Path_94" data-name="Path 94" d="M583.905,189.011s6.624,8.44,15.447-.174.977,19.213.977,19.213l-19.039,2.26Z" transform="translate(-485.731 -157.099)" fill="#e7c7ca"/>
    <path id="Path_95" data-name="Path 95" d="M578.551,201.7l.7,10.689.751,3.557.573,2.72s1.465,20.922,1.046,21.968.209,1.883.3,2.44-.088,1.954-.019,2.582,0,.906-1.6.682-3.837-.613-3.837-.613-5.649.418-7.6-.278a22.3,22.3,0,0,0-5.649-.7s-5.58.14-7.392-.069-2.791,2.232-3.975,1.534,1.393-7.461,2.23-9.415-1.115-6.9-1.115-6.9l2.511-13.928.559-3.157v-9.925l.138-.048a3.445,3.445,0,0,0,1.326-.925l.628,9.988,19.667.7V201.35" transform="translate(-462.063 -168.302)" opacity="0.1"/>
    <path id="Path_96" data-name="Path 96" d="M578.551,199.7l.7,10.689.751,3.557.573,2.72s1.465,20.922,1.046,21.968.209,1.883.3,2.44-.088,1.954-.019,2.582,0,.906-1.6.682-3.837-.613-3.837-.613-5.649.418-7.6-.278a22.3,22.3,0,0,0-5.649-.7s-5.58.14-7.392-.069-2.791,2.232-3.975,1.534,1.393-7.461,2.23-9.415-1.115-6.9-1.115-6.9l2.511-13.928.559-3.157v-9.925l.138-.048a3.445,3.445,0,0,0,1.326-.925l.628,9.988,19.667.7V199.35" transform="translate(-462.063 -166.72)" fill="#e7c7ca"/>
    <path id="Path_97" data-name="Path 97" d="M569.751,57.118a2.305,2.305,0,0,0-.628-1.184,2.569,2.569,0,0,0-1.1-.452,21.828,21.828,0,0,0-2.9-.557,4.647,4.647,0,0,0-.628-1.3c-2.05-2.9-5.084-5.626-8.653-6.243-1.868-.324-4.034-.033-5.23,1.439-.657.81-.939,1.883-1.6,2.678-1.278,1.544-3.586,1.734-5.2,2.929a9.629,9.629,0,0,0-2.092,2.421,8.3,8.3,0,0,0-1.546,3.094c-.419,2.283,1.09,4.459,1.368,6.762.628,5.153-4.9,9.725-3.852,14.809.609,2.965,3.348,5.053,6.18,6.111,1,.375,2.138.747,2.6,1.705.209.418.245.9.441,1.324.661,1.41,2.835,1.465,4,.437a6.236,6.236,0,0,0,1.674-4.239c.561-6.77-2.151-13.459-1.835-20.246.094-2.052.672-4.381,2.511-5.31,2.475-1.255,5.452.837,8.176.437a16.22,16.22,0,0,1,.782,9.9,27.042,27.042,0,0,0-1.236,5.419c-.082,2.835,1.448,5.425,2.77,7.932a4.221,4.221,0,0,1,.559,1.529,3.687,3.687,0,0,1-.3,1.6c-.747,2.011-2.036,3.877-2.182,6.017a.973.973,0,0,0,.157.716.9.9,0,0,0,.54.243c2.26.387,4.214-1.615,5.316-3.626a17,17,0,0,0,2.1-7.222c.228-4.26-1.3-8.45-1.205-12.714C568.843,66.675,571.034,61.794,569.751,57.118Z" transform="translate(-450.866 -46.45)" opacity="0.1"/>
    <path id="Path_98" data-name="Path 98" d="M570.752,56.118a2.305,2.305,0,0,0-.628-1.184,2.569,2.569,0,0,0-1.1-.452,21.825,21.825,0,0,0-2.9-.557,4.649,4.649,0,0,0-.628-1.3c-2.05-2.9-5.084-5.626-8.653-6.243-1.868-.324-4.034-.033-5.23,1.439-.657.81-.939,1.883-1.6,2.678-1.278,1.544-3.586,1.734-5.2,2.929a9.628,9.628,0,0,0-2.092,2.421,8.3,8.3,0,0,0-1.546,3.094c-.418,2.283,1.09,4.459,1.368,6.762.628,5.153-4.9,9.725-3.852,14.809.609,2.965,3.348,5.053,6.18,6.111,1,.375,2.138.747,2.6,1.705.209.418.245.9.441,1.324.661,1.41,2.835,1.465,4,.437a6.235,6.235,0,0,0,1.674-4.239c.561-6.77-2.151-13.459-1.835-20.246.094-2.052.672-4.381,2.511-5.31,2.475-1.255,5.452.837,8.176.437a16.221,16.221,0,0,1,.782,9.9,27.042,27.042,0,0,0-1.236,5.419c-.082,2.835,1.448,5.425,2.77,7.932a4.222,4.222,0,0,1,.559,1.529,3.686,3.686,0,0,1-.3,1.6c-.747,2.011-2.036,3.877-2.182,6.017a.973.973,0,0,0,.157.716.9.9,0,0,0,.54.243c2.26.387,4.214-1.615,5.316-3.626a17,17,0,0,0,2.1-7.222c.228-4.26-1.3-8.45-1.205-12.714C569.844,65.675,572.034,60.794,570.752,56.118Z" transform="translate(-451.673 -45.659)" fill="#3e373a"/>
    <path id="Path_99" data-name="Path 99" d="M581.79,470.47l8.3.266-1.19-6.155-6.358.6Z" transform="translate(-468.352 -367.374)" fill="#c3c7d9"/>
    <path id="Path_100" data-name="Path 100" d="M647.526,417.4c-.559.7-2.72,1.952-2.929,2.37a10.3,10.3,0,0,1-4.115,1.883,34.269,34.269,0,0,0-6.277,1.6,61.183,61.183,0,0,1-7.869,2.082,22.341,22.341,0,0,1-2.383.429c-1.255.069-14.993-4.6-14.993-4.6l2.649-2.72.146-.05c.749-.253,4.209-1.423,6.13-1.979,2.163-.628,4.674-3.207,4.674-3.207s3.695-1.255,4.184-1.4-1.255-4.881-1.255-4.881,8.019-1.113,11.158-2.057,10.392-.594,11.716,3.1S648.093,416.706,647.526,417.4Z" transform="translate(-508.841 -328.897)" fill="#4b4b5b"/>
    <path id="Path_101" data-name="Path 101" d="M551.673,494.812s-1.6,1.674-3.207,1.536-7.216.418-7.216.418a11.249,11.249,0,0,0-2.826,1.638c-1.312,1.034-2.009.209-2.138.034l-.023-.034c-.7,2.2-2.3.523-2.3.523s.7-6.7.483-7.532,1.379-2.274,1.379-2.274l1.883-.479,4.77-1.222,6.835,2.37Z" transform="translate(-447.423 -394.52)" fill="#e7c7ca"/>
    <path id="Path_102" data-name="Path 102" d="M537.7,493.26l-1.412,9.8-.023-.033c-.7,2.2-2.3.523-2.3.523s.7-6.7.483-7.532,1.379-2.274,1.379-2.274Z" transform="translate(-446.982 -399.138)" opacity="0.1"/>
    <path id="Path_103" data-name="Path 103" d="M599,360.08a11.418,11.418,0,0,0,6.9,0" transform="translate(-499.429 -293.822)" opacity="0.1"/>
    <path id="Path_104" data-name="Path 104" d="M659.29,371.42a3.052,3.052,0,0,0,2.72,0" transform="translate(-547.797 -302.79)" opacity="0.1"/>
    <path id="Path_105" data-name="Path 105" d="M659.29,378.772s2.58.345,3.069-.352" transform="translate(-547.811 -308.325)" opacity="0.1"/>
    <path id="Path_106" data-name="Path 106" d="M655.29,393.215s4.846-.628,6.049-1.465" transform="translate(-544.705 -318.866)" opacity="0.1"/>
    <path id="Path_107" data-name="Path 107" d="M584.62,391.75a11.5,11.5,0,0,0,4.743,1.465" transform="translate(-487.781 -318.866)" opacity="0.1"/>
    <path id="Path_108" data-name="Path 108" d="M626.326,478.124a22.354,22.354,0,0,1-2.383.429c-1.255.069-14.993-4.6-14.993-4.6l2.649-2.72.146-.05c.418.3.762.548,1.006.741,1.153.908,2.266-.278,2.684-.278s4.044,3,4.044,3,3.348.768,3.906,1.464,2.511.559,2.858,1.046A1.865,1.865,0,0,1,626.326,478.124Z" transform="translate(-507.83 -381.678)" opacity="0.1"/>
    <path id="Path_109" data-name="Path 109" d="M491.232,408.392a15.168,15.168,0,0,1-5.337-.628c-1.952-.822-8.438-2.72-10.321-1.387s-6.417,2.511-4.325,7.812,3.069,5.44,3.069,5.44a7.554,7.554,0,0,1,1.674,1.737c.628.977,6.486,3.207,7.95,3.207a12.157,12.157,0,0,1,7.67,2.511,15.764,15.764,0,0,0,6.9,2.791s4.6,1.883,6.036,2.3,7.982,2.23,9.517,1.674,2.511-4.046,2.511-4.046.7-3.138.347-3.626-2.3-.349-2.858-1.046-3.906-1.465-3.906-1.465-3.617-3-4.036-3-1.532,1.184-2.684.278a61.22,61.22,0,0,0-7.22-4.6C493.575,414.946,491.232,408.392,491.232,408.392Z" transform="translate(-397.435 -330.068)" fill="#4b4b5b"/>
    <path id="Path_110" data-name="Path 110" d="M536.27,427.114a4,4,0,0,1,3.429.906c1.674,1.4,7.306,4.2,7.306,4.2" transform="translate(-449.055 -346.767)" opacity="0.1"/>
    <path id="Path_111" data-name="Path 111" d="M702.816,427s-7.463,1.13-8.856,2.663" transform="translate(-575.945 -346.741)" opacity="0.1"/>
    <path id="Path_112" data-name="Path 112" d="M704.8,497.881h-.329a56.271,56.271,0,0,0-5.948,0c-.906.209-12.9,0-12.9,0l2.345-.487s-.87-3.05-.318-3.3c0,0-3.138-2.067-.772-3.463a7.341,7.341,0,0,1,4.917-.808l5.94-2.013,1.14-.387s6.7.349,8.507,4.952S704.8,497.881,704.8,497.881Z" transform="translate(-569.824 -394.52)" fill="#e7c7ca"/>
    <path id="Path_113" data-name="Path 113" d="M750.577,497.921h-.328c1.948-1.607,6.354-6.5-6.739-10.064l1.14-.387s6.7.349,8.507,4.952S750.577,497.921,750.577,497.921Z" transform="translate(-615.893 -394.559)" opacity="0.1"/>
    <circle id="Ellipse_14" data-name="Ellipse 14" cx="0.366" cy="0.366" r="0.366" transform="translate(122.791 97.206)" fill="#4b4b5b"/>
    <circle id="Ellipse_15" data-name="Ellipse 15" cx="0.366" cy="0.366" r="0.366" transform="translate(120.803 97.81)" fill="#4b4b5b"/>
    <g id="Group_8" data-name="Group 8" transform="translate(86.93 13.164)" opacity="0.1">
      <path id="Path_114" data-name="Path 114" d="M613.716,114.229a16.232,16.232,0,0,0-1.2-6.724c-2.72.406-5.7-1.693-8.176-.437-1.833.929-2.408,3.258-2.511,5.31-.025.542-.029,1.084-.019,1.626,0-.192,0-.387.019-.58.1-2.052.672-4.381,2.511-5.31,2.477-1.255,5.452.837,8.176.437A16.191,16.191,0,0,1,613.716,114.229Z" transform="translate(-588.627 -106.589)"/>
      <path id="Path_115" data-name="Path 115" d="M552.466,115.434a6.974,6.974,0,0,0-.027-1.368c-.222-1.841-1.228-3.6-1.41-5.4-.234,2.165,1.144,4.245,1.41,6.442A1.309,1.309,0,0,1,552.466,115.434Z" transform="translate(-548.454 -108.176)"/>
      <path id="Path_116" data-name="Path 116" d="M553.859,207.483a6.155,6.155,0,0,1-1.674,4.241c-1.178,1.029-3.348.973-4-.437-.209-.418-.241-.906-.444-1.324-.464-.958-1.607-1.331-2.6-1.705-2.835-1.061-5.569-3.138-6.178-6.111a6.411,6.411,0,0,1-.111-.816,6.6,6.6,0,0,0,.111,1.862c.609,2.965,3.348,5.051,6.178,6.111,1,.375,2.14.747,2.6,1.705.209.418.245.9.444,1.324.659,1.41,2.833,1.465,4,.437a6.237,6.237,0,0,0,1.674-4.241,23.918,23.918,0,0,0,.065-2.456C553.924,206.548,553.9,207.017,553.859,207.483Z" transform="translate(-538.823 -181.45)"/>
      <path id="Path_117" data-name="Path 117" d="M687.93,117.018v.906c.117-3.892,1.544-7.8,1.4-11.614C689.225,109.833,688.01,113.436,687.93,117.018Z" transform="translate(-656.734 -106.31)"/>
      <path id="Path_118" data-name="Path 118" d="M654.066,196.837a2.7,2.7,0,0,0,.048-.755,4.183,4.183,0,0,0-.559-1.529c-1.209-2.3-2.588-4.657-2.751-7.212,0,.109-.015.209-.017.326-.084,2.833,1.446,5.425,2.768,7.932A5.021,5.021,0,0,1,654.066,196.837Z" transform="translate(-627.36 -170.387)"/>
      <path id="Path_119" data-name="Path 119" d="M662.912,216.678A17.025,17.025,0,0,1,660.8,223.9c-1.1,2.011-3.057,4.013-5.318,3.626a.889.889,0,0,1-.54-.245.522.522,0,0,1-.1-.163c-.025.163-.046.328-.059.5a.964.964,0,0,0,.157.713.889.889,0,0,0,.54.245c2.262.387,4.214-1.615,5.318-3.626a17.025,17.025,0,0,0,2.111-7.222c.025-.49.027-.977.013-1.465C662.921,216.4,662.921,216.538,662.912,216.678Z" transform="translate(-630.513 -193.256)"/>
    </g>
    <path id="Path_120" data-name="Path 120" d="M695.31,509.115a7.4,7.4,0,0,0,8.787-2.695" transform="translate(-577.03 -409.545)" fill="none" stroke="#000" stroke-miterlimit="10" stroke-width="1" opacity="0.1"/>
    <path id="Path_121" data-name="Path 121" d="M700.29,533.032a10.324,10.324,0,0,1,9.833-.092" transform="translate(-581.083 -429.578)" fill="none" stroke="#000" stroke-miterlimit="10" stroke-width="1" opacity="0.1"/>
    <path id="Path_122" data-name="Path 122" d="M561.93,526.694s1.816-4.1,6.666-.973" transform="translate(-469.582 -423.879)" fill="none" stroke="#000" stroke-miterlimit="10" stroke-width="1" opacity="0.1"/>
    <path id="Path_123" data-name="Path 123" d="M533.79,229.779l3.7-3.348s14.359-.941,14.953,3.94c0,0,5.09-5.787,15.8-4.5l4.53,3.607-12.52,5.494-12.166,4.22-8.961-4.011Z" transform="translate(-448.094 -187.546)" opacity="0.1"/>
    <path id="Path_124" data-name="Path 124" d="M533.79,230.779l3.7-3.348s14.359-.941,14.953,3.94c0,0,5.09-5.787,15.8-4.5l4.53,3.607-12.52,5.494-12.166,4.22-8.961-4.011Z" transform="translate(-448.094 -188.336)" fill="#d5d6db"/>
    <path id="Path_125" data-name="Path 125" d="M437.38,204.83l1.638,19.6,17.365.872-.753-19.514-.015-.328Z" transform="translate(-352.441 -161.969)" opacity="0.1"/>
    <path id="Path_126" data-name="Path 126" d="M437.38,202.83l1.638,19.6,17.365.872-.753-19.514-.015-.328Z" transform="translate(-352.441 -160.388)" fill="#00b0ff"/>
    <path id="Path_127" data-name="Path 127" d="M567.624,202.83l-17.914,2.686V225.2l17.505-2.529Z" transform="translate(-442.911 -160.388)" opacity="0.1"/>
    <path id="Path_128" data-name="Path 128" d="M567.624,200.83l-17.914,2.686V223.2l17.505-2.529Z" transform="translate(-442.911 -158.806)" fill="#00b0ff"/>
    <path id="Path_129" data-name="Path 129" d="M578.566,223.79l-9.676,1.075.211,3.3,9.459-1.034Z" transform="translate(-458.022 -176.963)" fill="#fff" opacity="0.3"/>
    <path id="Path_130" data-name="Path 130" d="M536.7,324.113l.985,2.651a3.292,3.292,0,0,0,3.067.628c1.6-.628,3-.939,3.7-1.55s1.674-3.68,1.674-3.68.977-3.348,1.952-4.184,3.557-12.367,0-11.239-6.277,11.589-6.277,11.589a2.481,2.481,0,0,1-1.534.837c-.906.071-2.72-.14-3.069.628S535.654,322.579,536.7,324.113Z" transform="translate(-449.156 -251.578)" fill="#be6f72"/>
    <path id="Path_131" data-name="Path 131" d="M618.434,254.13a6.026,6.026,0,0,1-5.254-1.31l.755,19.512a5.324,5.324,0,0,0,4.5,1.485Z" transform="translate(-510.784 -209.003)" opacity="0.1"/>
    <path id="Path_132" data-name="Path 132" d="M618.434,252.13a6.026,6.026,0,0,1-5.254-1.31l.755,19.512a5.324,5.324,0,0,0,4.5,1.485Z" transform="translate(-510.784 -207.422)" fill="#00b0ff"/>
    <path id="Path_133" data-name="Path 133" d="M618.434,252.13a6.026,6.026,0,0,1-5.254-1.31l.755,19.512a5.324,5.324,0,0,0,4.5,1.485Z" transform="translate(-510.784 -207.422)" opacity="0.1"/>
    <path id="Path_134" data-name="Path 134" d="M640.29,239.22s7.287-2.228,9.187-1.914" transform="translate(-532.751 -196.711)" opacity="0.1"/>
    <path id="Path_135" data-name="Path 135" d="M570.173,237.068s-7.063-1.674-8.243-1.2" transform="translate(-469.634 -195.532)" opacity="0.1"/>
    <path id="Path_136" data-name="Path 136" d="M662.25,243.492s4.873-1.787,6.634-.937" transform="translate(-550.329 -200.704)" opacity="0.1"/>
    <path id="Path_137" data-name="Path 137" d="M650.52,448.276a16.023,16.023,0,0,1,2.4-1.492,39.187,39.187,0,0,0,3.557-2.174" transform="translate(-540.862 -360.667)" opacity="0.1"/>
    <path id="Path_138" data-name="Path 138" d="M541.291,360.08s-3.057,2.5-3.975,2.72-1.485,2.17-1.485,2.17" transform="translate(-448.538 -293.822)" opacity="0.1"/>
    <path id="Path_139" data-name="Path 139" d="M665.474,322.356l-.975,2.657a3.3,3.3,0,0,1-3.069.628c-1.6-.628-3-.939-3.7-1.55s-1.674-3.68-1.674-3.68-.975-3.348-1.952-4.184-3.557-12.367,0-11.239,6.277,11.589,6.277,11.589a2.481,2.481,0,0,0,1.534.837c.906.071,2.72-.14,3.069.628S666.52,320.829,665.474,322.356Z" transform="translate(-542.586 -250.194)" fill="#be6f72"/>
    <path id="Path_140" data-name="Path 140" d="M707.15,364.94s2,1.285,1.99,2.82" transform="translate(-586.278 -297.665)" opacity="0.1"/>
    <circle id="Ellipse_16" data-name="Ellipse 16" cx="9.346" cy="9.346" r="9.346" transform="translate(95.727 11.346)" fill="#be6f72"/>
    <path id="Path_141" data-name="Path 141" d="M580.579,93.058a19.159,19.159,0,0,0,3.212-1.216c2.425-.852,5.107-.268,7.561.5a9.806,9.806,0,0,0,2.885.628,2.92,2.92,0,0,0,2.54-1.255,2.838,2.838,0,0,0-.017-2.622,7.384,7.384,0,0,0-1.707-2.107c-2.176-2.055-4.875-3.975-7.86-3.766a10.819,10.819,0,0,0-3.454.99,38.087,38.087,0,0,0-4.055,2.042c-1.006.584-2.87,1.364-3.45,2.431C574.915,91.088,578.528,93.381,580.579,93.058Z" transform="translate(-481.385 -74.875)" fill="#3e373a"/>
    <path id="Path_142" data-name="Path 142" d="M596.773,113.417a2.92,2.92,0,0,1-2.54,1.255,9.814,9.814,0,0,1-2.887-.615c-2.454-.768-5.134-1.354-7.561-.5a18.213,18.213,0,0,1-3.211,1.213c-1.653.259-4.314-1.18-4.6-3.011-.324,2.115,2.762,3.927,4.6,3.638a19.254,19.254,0,0,0,3.211-1.213c2.427-.854,5.107-.268,7.561.5a9.416,9.416,0,0,0,2.887.615,2.942,2.942,0,0,0,2.54-1.255,2.45,2.45,0,0,0,.293-1.529A2.255,2.255,0,0,1,596.773,113.417Z" transform="translate(-481.382 -97.456)" opacity="0.1"/>
    <path id="Path_143" data-name="Path 143" d="M1025.1,661.63s1.24,1.621-.573,4.071-3.308,4.517-2.705,6.044c0,0,2.737-4.548,4.963-4.613S1027.541,664.365,1025.1,661.63Z" transform="translate(-840.457 -532.281)" fill="#00b0ff"/>
    <path id="Path_144" data-name="Path 144" d="M1025.363,661.63a2,2,0,0,1,.253.508c2.172,2.552,3.331,4.936,1.24,4.994-1.946.056-4.278,3.536-4.837,4.412a2.047,2.047,0,0,0,.065.209s2.737-4.548,4.963-4.613S1027.809,664.365,1025.363,661.63Z" transform="translate(-840.725 -532.281)" opacity="0.1"/>
    <path id="Path_145" data-name="Path 145" d="M1047.917,670.13c0,.571-.065,1.034-.142,1.034s-.144-.462-.144-1.034.08-.3.159-.3S1047.917,669.559,1047.917,670.13Z" transform="translate(-860.976 -538.715)" fill="#ffd037"/>
    <path id="Path_146" data-name="Path 146" d="M1049.1,673.249c-.5.272-.937.437-.975.368s.337-.347.837-.628.3-.075.341,0S1049.6,672.975,1049.1,673.249Z" transform="translate(-861.362 -541.151)" fill="#ffd037"/>
    <path id="Path_147" data-name="Path 147" d="M996.143,661.63s-1.241,1.621.573,4.071,3.308,4.517,2.7,6.044c0,0-2.734-4.548-4.963-4.613S993.7,664.365,996.143,661.63Z" transform="translate(-818.061 -532.281)" fill="#00b0ff"/>
    <path id="Path_148" data-name="Path 148" d="M996.143,661.63a2,2,0,0,0-.253.508c-2.172,2.552-3.331,4.936-1.241,4.994,1.944.056,4.279,3.536,4.837,4.412a1.6,1.6,0,0,1-.067.209s-2.734-4.548-4.963-4.613S993.7,664.365,996.143,661.63Z" transform="translate(-818.061 -532.281)" opacity="0.1"/>
    <path id="Path_149" data-name="Path 149" d="M995.64,670.13c0,.571.063,1.034.142,1.034s.145-.462.145-1.034-.082-.3-.159-.3S995.64,669.559,995.64,670.13Z" transform="translate(-819.864 -538.715)" fill="#ffd037"/>
    <path id="Path_150" data-name="Path 150" d="M990.709,673.249c.5.272.937.437.975.368s-.337-.347-.837-.628-.3-.075-.341,0S990.207,672.975,990.709,673.249Z" transform="translate(-815.724 -541.151)" fill="#ffd037"/>
    <ellipse id="Ellipse_17" data-name="Ellipse 17" cx="12.972" cy="1.99" rx="12.972" ry="1.99" transform="translate(168.388 147.896)" fill="#00b0ff" opacity="0.1"/>
    <path id="Path_151" data-name="Path 151" d="M1003.755,696.667l-.063.506-.088.715-.036.3-.088.716-.038.3-.086.713-.994,8.139c-.088.726-1.274,1.293-2.707,1.293H994.5c-1.433,0-2.617-.567-2.707-1.293l-.994-8.139-.088-.713-.035-.3-.088-.716-.038-.3-.086-.715-.063-.506c-.048-.418.592-.757,1.4-.757h10.549C1003.163,695.91,1003.805,696.255,1003.755,696.667Z" transform="translate(-815.719 -559.389)" fill="#65617d"/>
    <path id="Path_152" data-name="Path 152" d="M915.359,658.53l-.086.716H902.218l-.088-.716Z" transform="translate(-727.385 -520.746)" fill="#9d9cb5"/>
    <path id="Path_153" data-name="Path 153" d="M915.7,663.38l-.086.716H902.808l-.088-.716Z" transform="translate(-727.852 -524.581)" fill="#9d9cb5"/>
    <path id="Path_154" data-name="Path 154" d="M916.053,668.23l-.088.716h-12.56l-.086-.716Z" transform="translate(-728.327 -528.416)" fill="#9d9cb5"/>
  </g>
</svg>
