<svg xmlns="http://www.w3.org/2000/svg" width="229.355" height="166.247" viewBox="0 0 229.355 166.247">
  <g id="_6" data-name="6" transform="translate(0 0)">
    <path id="Path_172" data-name="Path 172" d="M430.265,584.643v40.076h-100.4c-11.44,0-20.747-8.989-20.747-20.038s9.307-20.038,20.747-20.038Z" transform="translate(-284.109 -460.012)" fill="#f2f2f2"/>
    <path id="Path_173" data-name="Path 173" d="M427.889,622.335a1.542,1.542,0,0,1-1.541,1.541H323.231a21.117,21.117,0,0,1,0-42.233H426.348a1.541,1.541,0,1,1,0,3.083H323.231a18.034,18.034,0,0,0,0,36.068H426.348A1.542,1.542,0,0,1,427.889,622.335Z" transform="translate(-279.267 -457.937)" fill="#733485"/>
    <path id="Path_174" data-name="Path 174" d="M459.318,613.26h-107.9a.308.308,0,0,1,0-.617h107.9a.308.308,0,1,1,0,.617Z" transform="translate(-313.161 -479.381)" fill="#ccc"/>
    <path id="Path_175" data-name="Path 175" d="M459.318,637.26h-107.9a.308.308,0,0,1,0-.617h107.9a.308.308,0,1,1,0,.617Z" transform="translate(-313.161 -495.982)" fill="#ccc"/>
    <path id="Path_176" data-name="Path 176" d="M459.318,661.26h-107.9a.308.308,0,1,1,0-.617h107.9a.308.308,0,1,1,0,.617Z" transform="translate(-313.161 -512.584)" fill="#ccc"/>
    <path id="Path_177" data-name="Path 177" d="M459.318,685.26h-107.9a.308.308,0,1,1,0-.617h107.9a.308.308,0,1,1,0,.617Z" transform="translate(-313.161 -529.185)" fill="#ccc"/>
    <path id="Path_178" data-name="Path 178" d="M704.274,457.195,679.129,488.4l-78.183-63c-8.908-7.178-10.515-20.017-3.583-28.62s19.82-9.763,28.727-2.586Z" transform="translate(-480.519 -325.021)" fill="#f2f2f2"/>
    <path id="Path_179" data-name="Path 179" d="M676.432,485.65a1.542,1.542,0,0,1-2.167.233l-80.3-64.7a21.117,21.117,0,1,1,26.5-32.886l80.3,64.7a1.541,1.541,0,0,1-1.934,2.4l-80.3-64.7a18.034,18.034,0,1,0-22.63,28.085l80.3,64.7A1.542,1.542,0,0,1,676.432,485.65Z" transform="translate(-475.708 -320.963)" fill="#ccc"/>
    <path id="Path_180" data-name="Path 180" d="M746.229,479.342l-84.016-67.7a.308.308,0,1,1,.387-.48l84.016,67.7a.308.308,0,1,1-.387.48Z" transform="translate(-528.278 -339.967)" fill="#ccc"/>
    <path id="Path_181" data-name="Path 181" d="M731.171,498.031l-84.016-67.7a.308.308,0,1,1,.387-.48l84.016,67.7a.308.308,0,0,1-.387.48Z" transform="translate(-517.862 -352.894)" fill="#ccc"/>
    <path id="Path_182" data-name="Path 182" d="M716.113,516.719l-84.016-67.7a.308.308,0,0,1,.387-.48l84.016,67.7a.308.308,0,0,1-.387.48Z" transform="translate(-507.446 -365.821)" fill="#ccc"/>
    <path id="Path_183" data-name="Path 183" d="M701.055,535.407l-84.016-67.7a.308.308,0,0,1,.387-.48l84.016,67.7a.308.308,0,0,1-.387.48Z" transform="translate(-497.03 -378.748)" fill="#ccc"/>
    <path id="Path_184" data-name="Path 184" d="M457.047,718.26H228.308a.308.308,0,0,1,0-.617H457.047a.308.308,0,0,1,0,.617Z" transform="translate(-228 -552.012)" fill="#ccc"/>
    <path id="Path_185" data-name="Path 185" d="M326.412,360.119h-3.524l-1.676-13.594h5.2Z" transform="translate(-222.191 -239.701)" fill="#ffb8b8"/>
    <path id="Path_186" data-name="Path 186" d="M308.879,387.355h6.8v4.279H304.6A4.279,4.279,0,0,1,308.879,387.355Z" transform="translate(-210.7 -267.944)" fill="#2f2e41"/>
    <path id="Path_187" data-name="Path 187" d="M209.617,360.119h-3.524l-1.676-13.594h5.2Z" transform="translate(-141.401 -239.701)" fill="#ffb8b8"/>
    <path id="Path_188" data-name="Path 188" d="M192.085,387.355h6.8v4.279H187.806a4.279,4.279,0,0,1,4.279-4.279Z" transform="translate(-129.91 -267.944)" fill="#2f2e41"/>
    <path id="Path_189" data-name="Path 189" d="M487.471,218.123v-1.541a9.942,9.942,0,0,1,9.942-9.942h0a9.942,9.942,0,0,1,9.942,9.942v1.541a7.167,7.167,0,0,1-7.167,7.167h-5.549a7.167,7.167,0,0,1-7.167-7.167Z" transform="translate(-407.483 -198.537)" fill="#2f2e41"/>
    <circle id="Ellipse_26" data-name="Ellipse 26" cx="7.571" cy="7.571" r="7.571" transform="translate(82.358 12.14)" fill="#ffb8b8"/>
    <path id="Path_190" data-name="Path 190" d="M634.488,376.475" transform="translate(-509.179 -316.017)" fill="#ffb8b8"/>
    <path id="Path_191" data-name="Path 191" d="M384.05,326.943a2.891,2.891,0,0,1,4.4.517l6.491-1.228,1.708,3.762-9.19,1.605a2.906,2.906,0,0,1-3.411-4.657Z" transform="translate(-335.304 -281.208)" fill="#ffb8b8"/>
    <path id="Path_192" data-name="Path 192" d="M434.9,283.477l.085.129-10.644,7.012-17.959,5.735a1.081,1.081,0,0,0-.744,1.152l.392,3.375a1.079,1.079,0,0,0,1.3.931l16.9-3.623a6.107,6.107,0,0,0,2.272-1l11.957-8.508a3.075,3.075,0,0,0-3.476-5.073Z" transform="translate(-350.871 -251.425)" fill="#ccc"/>
    <path id="Path_193" data-name="Path 193" d="M467.871,411.811a1.393,1.393,0,0,1-1.276-.833l-16.156-39.921a.462.462,0,0,0-.866.049l-13.181,38.865a1.388,1.388,0,0,1-1.813.891l-4.42-1.658a1.384,1.384,0,0,1-.893-1.142c-1.989-17.323,15.352-61.047,15.527-61.487l.049-.122,15.807,3.5.033.036c6.307,6.88,11.49,50.274,12.466,58.9a1.381,1.381,0,0,1-.916,1.463l-3.9,1.38A1.373,1.373,0,0,1,467.871,411.811Z" transform="translate(-367.111 -295.25)" fill="#2f2e41"/>
    <path id="Path_194" data-name="Path 194" d="M488.617,301.13c-3.83,0-8.1-.764-9.414-3.915l-.03-.072.041-.067c1.037-1.7,2.409-4.606,1.672-5.151-1.452-1.073-2.156-2.839-2.094-5.248a12.645,12.645,0,0,1,8.868-11.555h0a39.349,39.349,0,0,1,4.4-1.132,7.485,7.485,0,0,1,6.206,1.533,7.561,7.561,0,0,1,2.8,5.817c.054,5.589-.806,13.374-5.214,18.718a1.371,1.371,0,0,1-.812.472,37.679,37.679,0,0,1-6.424.6Z" transform="translate(-401.477 -245.022)" fill="#ccc"/>
    <path id="Path_195" data-name="Path 195" d="M505.8,347.381a2.946,2.946,0,0,1,3.6-2.054,2.9,2.9,0,0,1,.446.165l4.928-4.485,3.427,2.309-7.048,6.237a2.941,2.941,0,0,1-3.333,1.414,2.9,2.9,0,0,1-2.021-3.586Z" transform="translate(-420.087 -291.483)" fill="#ffb8b8"/>
    <path id="Path_196" data-name="Path 196" d="M525.16,307.544a1.383,1.383,0,0,1-.877-.313l-1.943-1.588a1.387,1.387,0,0,1,.034-2.175l8.151-6.252a.464.464,0,0,0,.087-.646l-5.031-6.651a4.1,4.1,0,0,1,.274-5.276h0a4.084,4.084,0,0,1,5.514-.441l.032.034,5.254,7.523a4.683,4.683,0,0,1-.111,7.456l-10.557,8.058A1.389,1.389,0,0,1,525.16,307.544Z" transform="translate(-431.25 -251.589)" fill="#ccc"/>
    <path id="Path_197" data-name="Path 197" d="M497.965,222.389v-3.757l6.707-2.929,6.395,2.929v3.757a.617.617,0,0,1-.617.617H498.581A.617.617,0,0,1,497.965,222.389Z" transform="translate(-414.742 -204.807)" fill="#2f2e41"/>
    <path id="Path_198" data-name="Path 198" d="M518.165,188.958c-.986-3.156,1.085-6.773,4.146-8.023a9.543,9.543,0,0,1,9.308,1.688,15.706,15.706,0,0,1,5.035,8.352,46.772,46.772,0,0,1,1.167,9.831,6.606,6.606,0,1,1-6.331,2.345,8.13,8.13,0,0,0-9.46-12.611C520.177,191.315,517.851,189.3,518.165,188.958Z" transform="translate(-428.544 -180.357)" fill="#2f2e41"/>
    <path id="Path_199" data-name="Path 199" d="M350.486,243.881a32.2,32.2,0,0,1-13.055-2.859,1.379,1.379,0,0,1-.817-1.265V228.53A1.389,1.389,0,0,1,338,227.143h24.97a1.389,1.389,0,0,1,1.387,1.387v11.227a1.379,1.379,0,0,1-.818,1.265h0a32.2,32.2,0,0,1-13.055,2.859Z" transform="translate(-303.131 -212.72)" fill="#733485"/>
    <path id="Path_200" data-name="Path 200" d="M334.06,210.111a1.389,1.389,0,0,1-.539-.108l-19.8-8.354a1.387,1.387,0,0,1,.047-2.575l19.8-7.512a1.382,1.382,0,0,1,.99,0l19.536,7.512a1.387,1.387,0,0,1,.047,2.57L334.605,210A1.389,1.389,0,0,1,334.06,210.111Z" transform="translate(-286.708 -188.045)" fill="#733485"/>
    <circle id="Ellipse_27" data-name="Ellipse 27" cx="1.85" cy="1.85" r="1.85" transform="translate(33.945 25.367)" fill="#3f3d56"/>
    <path id="Path_201" data-name="Path 201" d="M354.841,219.473,335.3,227.827a1.233,1.233,0,0,1-.964,0l-19.8-8.354a1.21,1.21,0,0,1-.59-.518,1.232,1.232,0,0,0,.59,1.751l19.8,8.354a1.233,1.233,0,0,0,.964,0l19.536-8.354a1.232,1.232,0,0,0,.584-1.749A1.211,1.211,0,0,1,354.841,219.473Z" transform="translate(-287.34 -207.058)" opacity="0.2"/>
    <path id="Path_202" data-name="Path 202" d="M343.926,235.087a.308.308,0,0,0,.308-.308V224.463l10.167-3.7a.308.308,0,0,0,.009-.617l-10.167,3.7a.6.6,0,0,0-.442.177.612.612,0,0,0-.184.439v10.315A.308.308,0,0,0,343.926,235.087Z" transform="translate(-307.976 -207.878)" fill="#3f3d56"/>
  </g>
</svg>
